# xmcd
#
# Track frame offsets: 
#        150
#        22120
#        44627
#        64840
#        91010
#        105595
#        120632
#        138972
#        163637
#
# Disc length: 2405 seconds
#
# Revision: 1
# Processed by: cddbd v1.5.2PL0 Copyright (c) Steve Scherf et al.
# Submitted via: ExactAudioCopy v1.0b3
#
DISCID=74096309
DTITLE=Chick Willis - Back To The Blues
DYEAR=1991
DGENRE=Blues
TTITLE0=Don't Let Success (Turn Our Love Around)
TTITLE1=Goin' To The Dogs
TTITLE2=Bow-Legged Woman
TTITLE3=I Ain't Superstitious
TTITLE4=Tell Papa
TTITLE5=Story Of My Life
TTITLE6=My Adorable One
TTITLE7=I Ain't Jivin' Baby
TTITLE8=Strange Things Happening
EXTD=YEAR: 1991
EXTT0=
EXTT1=
EXTT2=
EXTT3=
EXTT4=
EXTT5=
EXTT6=
EXTT7=
EXTT8=
PLAYORDER=
